<svg width="161" height="68" viewBox="0 0 161 68" fill="none" xmlns="http://www.w3.org/2000/svg">
<path d="M3.5845 62.9192V67.8278H1.92084V55.2894H6.57388C7.95449 55.2894 9.03471 55.6396 9.81455 56.34C10.6002 57.0404 10.993 57.9676 10.993 59.1215C10.993 60.3386 10.6088 61.2773 9.84055 61.9375C9.07804 62.592 7.98337 62.9192 6.55655 62.9192H3.5845ZM3.5845 61.5672H6.57388C7.46348 61.5672 8.14512 61.3605 8.6188 60.9472C9.09248 60.5281 9.32932 59.9253 9.32932 59.1388C9.32932 58.3924 9.09248 57.7954 8.6188 57.3476C8.14512 56.8998 7.49525 56.6673 6.6692 56.65H3.5845V61.5672Z" fill="white"/>
<path d="M17.7429 62.7556H14.7795V67.8278H13.1072V55.2894H17.2837C18.7047 55.2894 19.7965 55.6109 20.559 56.2539C21.3273 56.8969 21.7114 57.8327 21.7114 59.0613C21.7114 59.842 21.4977 60.5223 21.0702 61.1022C20.6486 61.682 20.0593 62.1155 19.3026 62.4025L22.266 67.7244V67.8278H20.481L17.7429 62.7556ZM14.7795 61.4036H17.3357C18.1617 61.4036 18.8174 61.1912 19.3026 60.7663C19.7936 60.3415 20.0391 59.7731 20.0391 59.0613C20.0391 58.2862 19.8052 57.692 19.3373 57.2787C18.8751 56.8653 18.2051 56.6558 17.327 56.65H14.7795V61.4036Z" fill="white"/>
<path d="M33.7556 61.9633C33.7556 63.1919 33.5477 64.2655 33.1318 65.184C32.7159 66.0969 32.1266 66.7944 31.3641 67.2766C30.6016 67.7589 29.712 68 28.6953 68C27.7018 68 26.8208 67.7589 26.0526 67.2766C25.2843 66.7887 24.6864 66.0969 24.2589 65.2013C23.8372 64.2999 23.6206 63.2579 23.6091 62.0753V61.1711C23.6091 59.9655 23.8199 58.9005 24.2416 57.9762C24.6633 57.0519 25.2583 56.3458 26.0266 55.8578C26.8006 55.3641 27.6844 55.1172 28.678 55.1172C29.6889 55.1172 30.5785 55.3612 31.3468 55.8492C32.1209 56.3314 32.7159 57.0347 33.1318 57.959C33.5477 58.8775 33.7556 59.9482 33.7556 61.1711V61.9633ZM32.1006 61.1539C32.1006 59.6669 31.8003 58.5273 31.1995 57.7351C30.5987 56.9371 29.7582 56.5381 28.678 56.5381C27.6267 56.5381 26.7977 56.9371 26.1912 57.7351C25.5904 58.5273 25.2814 59.6296 25.2641 61.0419V61.9633C25.2641 63.4043 25.5673 64.5382 26.1739 65.3649C26.7862 66.1858 27.6267 66.5963 28.6953 66.5963C29.7698 66.5963 30.6016 66.2088 31.1908 65.4338C31.78 64.653 32.0833 63.5364 32.1006 62.0839V61.1539Z" fill="white"/>
<path d="M40.237 65.6318L43.8416 55.2894H45.6612L40.9822 67.8278H39.5091L34.8388 55.2894H36.6497L40.237 65.6318Z" fill="white"/>
<path d="M49.1445 67.8278H47.4808V55.2894H49.1445V67.8278Z" fill="white"/>
<path d="M61.8905 67.8278H60.2182L53.8668 58.1657V67.8278H52.1945V55.2894H53.8668L60.2355 64.9946V55.2894H61.8905V67.8278Z" fill="white"/>
<path d="M74.1254 63.8493C73.9694 65.1754 73.4755 66.2002 72.6437 66.9236C71.8176 67.6412 70.7172 68 69.3423 68C67.852 68 66.6562 67.469 65.7551 66.4069C64.8597 65.3448 64.412 63.9239 64.412 62.1442V60.9386C64.412 59.7731 64.62 58.7484 65.0359 57.8643C65.4576 56.9801 66.0526 56.3027 66.8209 55.8319C67.5891 55.3554 68.4787 55.1172 69.4896 55.1172C70.8298 55.1172 71.9043 55.4904 72.713 56.2367C73.5217 56.9773 73.9925 58.0049 74.1254 59.3196H72.453C72.3086 58.3207 71.9938 57.5973 71.5086 57.1495C71.0291 56.7017 70.3561 56.4778 69.4896 56.4778C68.4268 56.4778 67.592 56.8682 66.9855 57.649C66.3847 58.4297 66.0843 59.5406 66.0843 60.9816V62.1959C66.0843 63.5565 66.3703 64.6386 66.9422 65.4424C67.5141 66.2461 68.3141 66.648 69.3423 66.648C70.2666 66.648 70.9742 66.4413 71.4652 66.028C71.962 65.6089 72.2913 64.8826 72.453 63.8493H74.1254Z" fill="white"/>
<path d="M78.1892 67.8278H76.5255V55.2894H78.1892V67.8278Z" fill="white"/>
<path d="M88.3618 64.5554H83.0762L81.8891 67.8278H80.1735L84.9911 55.2894H86.4468L91.2732 67.8278H89.5662L88.3618 64.5554ZM83.5788 63.1948H87.8679L85.719 57.3303L83.5788 63.1948Z" fill="white"/>
<path d="M94.6438 66.4758H100.623V67.8278H92.9715V55.2894H94.6438V66.4758Z" fill="white"/>
<path d="M108.586 62.9192V67.8278H106.922V55.2894H111.575C112.956 55.2894 114.036 55.6396 114.816 56.34C115.601 57.0404 115.994 57.9676 115.994 59.1215C115.994 60.3386 115.61 61.2773 114.842 61.9375C114.079 62.592 112.984 62.9192 111.558 62.9192H108.586ZM108.586 61.5672H111.575C112.465 61.5672 113.146 61.3605 113.62 60.9472C114.094 60.5281 114.33 59.9253 114.33 59.1388C114.33 58.3924 114.094 57.7954 113.62 57.3476C113.146 56.8998 112.496 56.6673 111.67 56.65H108.586V61.5672Z" fill="white"/>
<path d="M123.888 64.5554H118.602L117.415 67.8278H115.699L120.517 55.2894H121.973L126.799 67.8278H125.092L123.888 64.5554ZM119.105 63.1948H123.394L121.245 57.3303L119.105 63.1948Z" fill="white"/>
<path d="M133.125 62.7556H130.161V67.8278H128.489V55.2894H132.665C134.086 55.2894 135.178 55.6109 135.941 56.2539C136.709 56.8969 137.093 57.8327 137.093 59.0613C137.093 59.842 136.879 60.5223 136.452 61.1022C136.03 61.682 135.441 62.1155 134.684 62.4025L137.648 67.7244V67.8278H135.863L133.125 62.7556ZM130.161 61.4036H132.717C133.543 61.4036 134.199 61.1912 134.684 60.7663C135.175 60.3415 135.421 59.7731 135.421 59.0613C135.421 58.2862 135.187 57.692 134.719 57.2787C134.257 56.8653 133.587 56.6558 132.709 56.65H130.161V61.4036Z" fill="white"/>
<path d="M142.639 61.9978L141.096 63.5909V67.8278H139.433V55.2894H141.096V61.4897L146.702 55.2894H148.713L143.748 60.8266L149.103 67.8278H147.11L142.639 61.9978Z" fill="white"/>
<path d="M154.276 62.2389C152.849 61.8313 151.809 61.3318 151.156 60.7405C150.509 60.1434 150.186 59.4086 150.186 58.536C150.186 57.5485 150.581 56.7333 151.373 56.0903C152.17 55.4416 153.204 55.1172 154.475 55.1172C155.341 55.1172 156.113 55.2837 156.788 55.6167C157.47 55.9496 157.996 56.4089 158.365 56.9945C158.741 57.5801 158.929 58.2202 158.929 58.9149H157.256C157.256 58.1571 157.014 57.5629 156.528 57.1323C156.043 56.696 155.359 56.4778 154.475 56.4778C153.655 56.4778 153.013 56.6586 152.551 57.0203C152.095 57.3763 151.867 57.8729 151.867 58.5101C151.867 59.0211 152.083 59.4545 152.517 59.8105C152.956 60.1607 153.698 60.4822 154.743 60.7749C155.795 61.0677 156.615 61.3921 157.204 61.7481C157.799 62.0983 158.238 62.5087 158.521 62.9795C158.81 63.4503 158.955 64.0043 158.955 64.6415C158.955 65.6577 158.556 66.4729 157.759 67.0872C156.962 67.6957 155.896 68 154.562 68C153.695 68 152.886 67.8364 152.135 67.5091C151.384 67.1762 150.804 66.7226 150.394 66.1485C149.989 65.5744 149.787 64.9228 149.787 64.1937H151.459C151.459 64.9515 151.74 65.5515 152.3 65.9935C152.866 66.4298 153.62 66.648 154.562 66.648C155.44 66.648 156.113 66.47 156.58 66.1141C157.048 65.7581 157.282 65.273 157.282 64.6587C157.282 64.0444 157.066 63.5708 156.632 63.2378C156.199 62.8991 155.414 62.5661 154.276 62.2389Z" fill="white"/>
<path d="M75.221 12.577C75.221 12.577 74.1202 9.91456 73.5233 6.6278C61.1096 -0.688556 52.071 0.0185539 52.071 0.0185539C53.2191 2.29248 53.2278 2.28824 54.9234 5.21163C68.8419 7.70623 73.9611 12.7457 73.9611 12.7457C66.809 16.1348 62.3301 22.5414 62.3301 22.5414C62.5897 24.2598 62.6847 25.7042 62.6847 25.7042C63.0081 25.5414 68.7846 24.0306 68.7846 24.0306C71.9619 18.9427 77.1464 16.7963 78.2938 16.3703C77.2046 15.5783 75.9803 14.3602 75.221 12.577Z" fill="white"/>
<path d="M109.226 23.5401C107.649 21.9611 101.702 17.6724 87.9156 12.3814C87.9156 12.3814 91.0651 8.44464 103.29 7.13227C103.29 7.13227 103.25 3.55711 102.934 2.46665C102.934 2.46665 95.3824 1.62693 85.6847 7.52924C85.6028 8.36826 85.6179 10.0304 86.4084 12.0484C86.4084 12.0484 87.6749 14.6122 86.1097 16.7889C86.8045 16.9646 91.2263 17.9306 97.7352 21.6554C97.7352 21.6554 102.153 22.1764 106.444 23.7341C106.326 23.7594 106.269 23.7765 106.269 23.7765C104.69 24.1427 103.3 24.8974 102.121 26.052C100.45 27.66 99.4916 29.8503 99.4916 32.0595C99.4916 34.5223 100.63 36.9368 102.469 38.3611C104.064 39.6116 106.689 40.4513 109.002 40.4513C114.135 40.4513 118.155 36.7206 118.155 31.9593C118.155 26.7425 113.675 23.8133 109.226 23.5401ZM109.307 39.1216C107.284 39.1216 106.024 37.3101 105.452 36.2299C104.723 34.7976 104.335 33.0938 104.335 31.3028C104.335 29.0605 105.182 24.8217 108.39 24.8217C112.147 24.8217 113.363 30.0731 113.363 32.6153C113.363 34.8677 112.515 39.1216 109.307 39.1216Z" fill="white"/>
<path d="M80.9611 15.6012C80.9611 15.6012 80.0952 14.6435 81.4515 14.9497C81.4515 14.9497 81.584 14.9605 81.5783 14.9482C81.6957 14.9671 81.8155 14.9641 81.8306 15.0779C81.9539 15.349 82.0685 15.5235 82.3259 15.6271C82.3259 15.6271 82.5754 15.7461 83.1404 15.7253C83.1404 15.7253 83.0577 16.0625 82.7293 16.3076C82.7293 16.3076 82.4601 16.3969 82.4864 16.8921C82.4864 16.8921 82.2766 16.9599 81.9315 16.7689C81.9315 16.7689 81.5232 16.6435 81.5224 16.9706C81.5224 16.9706 81.8619 16.8683 81.9836 17.014C81.9836 17.014 81.542 17.1358 81.7415 17.5451C81.7415 17.5451 82.0852 17.6698 82.461 17.1588C82.461 17.1588 82.5407 17.1991 82.5435 17.2597C82.5435 17.2597 82.0744 17.3614 82.859 17.917C82.859 17.917 82.7024 17.3425 82.9693 17.3239C82.9693 17.3239 83.2776 17.4074 83.3602 17.734C83.3602 17.734 83.4443 17.3462 83.5769 17.3038C83.5769 17.3038 83.0266 16.8106 83.6516 16.8935C83.6516 16.8935 83.7576 16.8345 83.5242 16.6686C83.5242 16.6686 83.7737 16.5468 83.9265 16.67C83.9265 16.67 83.8446 16.5671 83.8975 16.4863H84.2784C84.2784 16.4863 83.735 16.2809 84.4857 15.9739C84.4857 15.9739 84.145 15.8102 84.4835 15.7483C84.4835 15.7483 84.6307 15.7504 84.5873 15.3605C84.5873 15.3605 83.5022 15.9711 83.2847 14.7227C83.2847 14.7227 83.9542 14.4919 84.1964 15.1133C84.1964 15.1133 84.3268 15.0123 84.1644 14.6412C84.1644 14.6412 84.6351 14.417 84.3442 13.2335C84.3442 13.2335 84.3108 13.1341 84.614 12.9849C84.614 12.9849 85.158 12.6526 84.1827 12.3535C84.1827 12.3535 84.5705 12.7953 84.116 12.9432C84.116 12.9432 82.991 11.6292 83.5479 10.4083C83.5479 10.4083 83.8027 9.72501 83.6516 9.12382C83.5242 8.61421 82.7677 7.91223 81.9235 8.38647C81.9235 8.38647 82.6058 8.55516 82.5567 9.10719C82.524 9.4741 82.1055 9.88415 82.4197 10.8645C82.5921 11.3905 82.9177 11.947 83.337 12.401C83.337 12.401 83.6285 12.7241 83.7614 13.0029C83.7614 13.0029 83.5226 12.871 83.3015 12.8595C83.3015 12.8595 82.6392 12.7874 83.337 13.4729C83.2637 13.3957 82.9504 13.0217 83.8991 13.2646C83.8991 13.2646 84.4836 14.3169 83.8258 14.4776C83.8258 14.4776 83.3958 14.5179 83.0775 14.1266C83.0775 14.1266 82.4644 13.4094 82.2565 13.1412C82.2565 13.1412 81.4166 12.4385 81.3977 11.3942C81.3977 11.3942 81.3659 11.005 81.6618 10.9148C81.6618 10.9148 81.6618 10.9134 81.6596 10.9127C81.6719 10.8926 81.6719 10.8774 81.6719 10.8774C80.9576 10.1494 81.41 9.74146 81.41 9.74146C81.542 9.7625 81.5906 9.66012 81.5906 9.66012C81.5906 9.66012 81.1728 9.22973 81.1606 9.1461C81.149 9.06405 81.3223 8.96238 81.3223 8.96238L81.0809 8.71589C80.8791 8.63367 80.822 8.0406 80.822 8.0406L80.6231 8.07933C80.4724 7.79253 80.1322 7.5669 80.1322 7.5669C80.1343 7.87474 79.5339 7.92956 79.5339 7.92956C79.2293 7.77679 78.8645 7.91294 78.8645 7.91294C78.4904 7.87033 78.8725 8.25898 78.8725 8.25898C78.961 8.49822 79.412 8.67115 79.412 8.67115L79.8073 8.87733C79.7755 8.95866 79.5492 8.91693 79.5492 8.91693C79.2076 8.69131 78.8485 8.76204 78.8485 8.76204C78.5439 8.90615 78.4888 8.5983 78.4888 8.5983C78.2582 9.0057 79.04 8.98979 79.04 8.98979C79.5702 8.99845 79.7298 9.22549 79.7298 9.22549C79.2684 9.18446 79.2844 9.38693 79.2844 9.38693C78.9211 9.32628 78.8485 9.632 78.8485 9.632C78.6361 9.71051 78.7476 10.0486 78.7476 10.0486C79.2198 10.5819 78.7877 10.4549 78.3678 10.3389L78.1153 10.2705C78.2002 9.88274 77.7607 9.1217 77.7607 9.1217C77.1457 8.23865 77.4061 8.03477 77.4061 8.03477C77.7926 7.60651 77.314 7.46169 77.314 7.46169C77.4554 7.66786 77.2777 7.75787 77.2777 7.75787C76.9151 7.25781 76.6228 7.31617 76.6228 7.31617C77.0544 7.72692 76.8505 7.84876 76.8505 7.84876C76.2842 7.31546 75.9969 7.55965 75.9969 7.55965C76.2943 7.62384 76.2915 7.88836 76.2915 7.88836C76.3915 8.09525 76.5801 8.03336 76.5801 8.03336C76.9005 8.25951 76.5902 8.27914 76.5902 8.27914C76.5214 8.1566 76.4271 8.25385 76.4271 8.25385C76.279 8.25385 76.1536 8.23865 76.1536 8.23865C76.2305 8.6365 76.8521 8.60697 76.8795 8.58681C77.3814 9.34502 77.0087 9.5901 77.0087 9.5901C77.4198 10.3303 77.0087 10.308 77.0087 10.308C77.2494 10.3303 77.3626 10.5149 77.3626 10.5149C77.4366 10.7614 77.0813 10.7173 77.0813 10.7173C77.3083 10.9242 77.7831 10.9467 77.7831 10.9467C78.0458 11.1456 78.1698 11.2082 78.2155 11.2443C78.3772 11.3373 78.6491 11.4158 78.9341 11.3979C78.9501 11.4462 78.9355 11.4345 78.9756 11.4973C78.9756 11.4973 78.1893 12.0515 77.3574 12.0285C77.3574 12.0285 77.2537 11.9268 77.0992 11.7401C77.0992 11.7401 76.8092 11.5362 76.7375 11.7401C76.7375 11.7401 77.0825 11.8612 77.0523 12.053L76.5699 11.965C76.5699 11.965 76.6511 12.0667 76.7062 12.1503C76.7062 12.1503 76.7722 12.3708 77.2407 12.2743C77.2407 12.2743 77.3204 12.3766 77.2654 12.3961C77.2654 12.3961 77.029 12.4746 77.1152 12.7241C77.1152 12.7241 77.3263 12.7354 77.4161 12.6656C77.4161 12.6656 77.5061 12.6295 77.4953 12.5006H77.707C77.707 12.5006 78.0458 12.4502 77.8942 12.7846C77.8942 12.7846 78.0413 12.8523 78.182 12.5222C78.182 12.5222 78.3945 12.4017 78.4909 12.7096C78.4909 12.7096 78.5873 12.4191 78.895 12.5041C78.895 12.5041 78.903 12.5849 78.8217 12.6475C78.8217 12.6475 79.019 12.7405 79.0784 12.5453C79.0784 12.5453 79.3547 12.4249 79.3801 12.6512C79.3801 12.6512 79.5106 12.3363 79.5223 12.2555C79.5223 12.2555 79.9915 12.435 79.9052 12.5763C79.9052 12.5763 79.9792 12.6454 80.1235 12.6037C80.1235 12.6037 80.6231 13.1182 81.3063 13.5939C80.972 13.5861 80.748 13.6047 80.6827 13.6227C80.6652 13.6105 80.5195 13.5788 80.5101 13.5716C80.5101 13.5716 80.0966 13.4865 79.9981 13.6421C79.9981 13.6421 79.6442 13.826 79.8458 14.3982C79.8458 14.3982 79.7246 14.7738 79.5179 14.5683C79.5179 14.5683 79.1764 14.3413 78.8144 14.2801C78.8144 14.2801 78.3162 14.1135 78.1792 13.8C78.1792 13.8 77.968 13.4498 77.5953 13.8059C77.5953 13.8059 77.8534 13.8671 77.9305 14.0105C77.9305 14.0105 78.0813 14.1503 78.2365 14.1562C78.2365 14.1562 78.3103 14.2368 78.2836 14.2773C78.2836 14.2773 77.5366 14.1721 77.7695 14.6463C77.7695 14.6463 77.8753 14.4812 78.1443 14.6866C78.1443 14.6866 78.3591 14.7478 78.414 14.5648C78.414 14.5648 78.7339 14.7298 78.3553 15.0175C78.3553 15.0175 78.6187 15.2019 78.8485 14.812C78.8485 14.812 79.1691 14.8741 79.3083 15.346C79.3083 15.346 79.6376 14.9108 79.8175 15.3842C79.8175 15.3842 79.9625 15.0967 80.0721 15.5472C80.0721 15.5472 80.2954 15.6913 80.4969 15.5501C80.4969 15.5501 80.5832 15.6927 80.9611 15.6012Z" fill="white"/>
<path d="M18.386 24.8132C18.386 24.3383 18.0755 24.0974 17.4634 24.0974L16.3372 24.1241L15.2262 24.1487L12.9649 24.0974C12.5914 24.0974 11.8139 24.0974 11.8139 24.8376C11.8139 25.4784 12.3636 25.485 12.6929 25.4899L12.9663 25.5023C13.5168 25.5728 13.933 25.7263 14.1695 26.2389C14.3544 26.6511 14.3544 27.4606 14.3544 27.9449V33.4854C13.677 32.653 7.464 25.0093 7.464 25.0093L7.29143 24.7931C6.79389 24.1666 6.70619 24.0974 5.72423 24.0974H1.25314C0.904392 24.0974 0.178475 24.0974 0.178475 24.7633C0.178475 25.4553 0.857968 25.4812 1.22346 25.4957L1.36635 25.5023C2.28374 25.5571 2.34539 26.2122 2.33886 27.2818L2.33747 27.4901V35.3414L2.33886 35.6915C2.34462 36.4974 2.35192 37.6017 2.12055 38.2519C1.95815 38.695 1.74485 38.8456 1.24376 38.8688C1.24014 38.8688 1.09218 38.8759 1.09218 38.8759C0.710698 38.8904 0 38.9162 0 39.6088C0 40.0736 0.335055 40.3498 0.897165 40.3498L3.31066 40.249L5.69887 40.3498C6.30949 40.3498 6.67352 40.0736 6.67352 39.6088C6.67352 38.922 5.91424 38.8904 5.5509 38.8759L5.40947 38.8688C4.73575 38.8191 4.32965 38.6748 4.12067 38.0529C3.95464 37.5546 3.95464 36.235 3.95464 35.6692V27.9369C4.65304 28.8027 13.6139 39.9168 13.6139 39.9168C13.6118 39.9145 13.7212 40.0593 13.7212 40.0593C14.0513 40.4911 14.4262 40.9813 15.0999 40.9813C15.456 40.9813 15.696 40.9077 15.8498 40.7512C16.026 40.5726 16.0543 40.329 16.0543 40.0471C16.0543 39.9822 16.0529 39.9145 16.0515 39.8445L16.0485 39.6088V27.6415L16.0456 27.3336C16.0435 27.2443 16.0426 27.1549 16.0426 27.0714C16.0426 26.156 16.1479 25.5981 16.9043 25.5007C16.905 25.5007 17.2205 25.4929 17.2205 25.4929C17.5743 25.4929 17.9762 25.4929 18.2139 25.2579C18.3273 25.1433 18.386 24.9941 18.386 24.8132Z" fill="white"/>
<path d="M26.9385 23.693C24.3935 23.693 22.2317 24.5471 20.5144 26.228C18.8441 27.8367 17.8848 30.0263 17.8848 32.2362C17.8848 34.699 19.0261 37.1128 20.8633 38.5392C22.4587 39.789 25.0848 40.6271 27.3961 40.6271C32.5299 40.6271 36.5505 36.8979 36.5505 32.1359C36.5505 26.6518 31.598 23.693 26.9385 23.693ZM27.7014 39.2981C25.6772 39.2981 24.4183 37.4867 23.8482 36.4064C23.1165 34.9743 22.73 33.2704 22.73 31.4794C22.73 29.2385 23.5778 24.9976 26.7855 24.9976C30.542 24.9976 31.7576 30.2498 31.7576 32.7918C31.7576 35.0427 30.9098 39.2981 27.7014 39.2981Z" fill="white"/>
<path d="M50.326 27.0242C50.6466 26.2674 50.922 25.613 51.7436 25.5012C51.7445 25.5012 51.965 25.4825 51.965 25.4825C52.3058 25.4616 52.9433 25.4218 52.9433 24.8374C52.9433 24.6146 52.8526 24.0971 52.0194 24.0971L49.8604 24.1484L47.6759 24.0971C47.3946 24.0971 46.6513 24.0971 46.6513 24.7883C46.6513 25.4724 47.293 25.4825 47.6775 25.4888L47.9552 25.5019C48.2379 25.5315 48.708 25.6591 48.708 26.1765C48.708 26.5383 48.4687 27.2037 48.2431 27.7074C48.2431 27.7074 45.7766 33.6688 45.4371 34.4905C45.0875 33.6594 42.1983 26.8023 42.1983 26.8023C42.0859 26.5362 41.9161 26.1348 41.9161 25.8991C41.9161 25.6641 42.1585 25.5171 42.3339 25.5019C42.3383 25.5019 42.6531 25.4919 42.6531 25.4919C43.0998 25.4897 43.8467 25.4876 43.8467 24.7632C43.8467 24.5894 43.788 24.4396 43.6756 24.3293C43.4327 24.0893 43.0135 24.0935 42.7068 24.0964L42.6189 24.0971L39.6715 24.1989L36.0651 24.0971L35.9426 24.0957C35.6495 24.0893 35.2834 24.0813 35.0571 24.3004C34.9446 24.4115 34.888 24.557 34.888 24.7372C34.888 25.445 35.4725 25.4853 35.6931 25.5019C35.6837 25.5019 35.7387 25.5078 35.7387 25.5078C36.1224 25.553 36.3756 25.5819 36.5888 25.8321C36.8788 26.1997 37.2385 27.0429 37.3422 27.2923C37.3437 27.2953 42.6792 39.5416 42.6792 39.5416C42.6771 39.5388 42.767 39.7623 42.767 39.7623C42.957 40.2457 43.1064 40.6269 43.8894 40.6269C44.5344 40.6269 44.7112 40.271 44.8772 39.8068C44.8723 39.8162 50.1315 27.471 50.1315 27.471C50.1287 27.4762 50.326 27.0242 50.326 27.0242Z" fill="white"/>
<path d="M64.9172 38.8757L64.7505 38.8691C64.3219 38.8483 64.1498 38.7459 63.8686 38.3516C63.6328 38.0128 63.3631 37.3684 63.2572 37.1076C63.2551 37.1027 58.0218 24.8316 58.0218 24.8316C58.0218 24.8309 57.9072 24.5498 57.9072 24.5498C57.6847 23.9876 57.5293 23.6929 56.7091 23.6929C55.6838 23.6929 55.4981 24.1584 55.242 24.8035L55.1173 25.109L52.1678 32.032L50.771 35.5169L50.5149 36.1864C50.2626 36.856 49.95 37.6871 49.7136 38.1201C49.3793 38.7199 49.2088 38.7494 48.4909 38.8714C48.1515 38.9225 47.6054 39.0067 47.6054 39.6086C47.6054 39.9467 47.7787 40.3504 48.6048 40.3504L50.9921 40.2991L53.3812 40.3504C54.2948 40.3504 54.4313 39.8853 54.4313 39.6086C54.4313 38.9225 53.7502 38.8293 53.2034 38.7553C52.4021 38.6456 51.7618 38.5599 51.8313 37.8031C51.8618 37.4657 52.0292 37.0088 52.1105 36.771C52.1105 36.771 52.1859 36.5498 52.1859 36.5483C52.1866 36.5468 52.2345 36.4171 52.2345 36.4171C52.4165 35.9327 52.5115 35.5919 53.2317 35.5962H56.8506C57.8245 35.5608 57.8535 36.0258 58.0574 36.5742L58.1124 36.7234C58.1133 36.7264 58.4938 37.6669 58.4938 37.6669C58.5904 37.9055 58.7326 38.2623 58.7326 38.5484C58.7326 38.7813 58.5534 38.8366 58.0159 38.8907C57.5678 38.9354 56.9543 38.9966 56.9543 39.6086C56.9543 40.1023 57.2995 40.3504 57.9789 40.3504L61.6892 40.2487L64.7889 40.3504C65.0542 40.3504 65.8644 40.3504 65.8644 39.6086C65.8644 38.9015 65.272 38.885 64.9172 38.8757ZM57.1255 34.0141H53.0257L55.0782 28.9724L57.1255 34.0141Z" fill="white"/>
<path d="M77.6554 29.6374C77.659 29.6374 76.363 29.2087 76.363 29.2087C75.3028 28.8656 74.1693 28.3999 74.1693 27.2107C74.1693 25.9378 75.5508 25.1486 76.8293 25.1486C78.0963 25.1486 78.9355 25.9544 79.5504 27.7592C79.6266 28.002 79.8057 28.5838 80.4373 28.5838C80.6462 28.5838 80.8122 28.5217 80.9348 28.3999C81.164 28.17 81.1604 27.8017 81.1575 27.5055V25.6971L81.159 25.5285C81.1677 25.1191 81.1757 24.6564 80.6382 24.3738C79.784 23.9364 78.084 23.6927 77.2362 23.6927C73.9576 23.6927 70.4191 25.7238 70.4191 29.0039C70.4191 31.7825 73.2989 32.9797 75.0213 33.6918C75.0228 33.6946 75.54 33.8943 75.54 33.8943C77.0099 34.458 78.6765 35.0951 78.6765 36.7809C78.6765 38.5908 76.7357 39.2474 75.4332 39.2474C74.6988 39.2474 73.6695 39.0997 72.937 38.3968C72.3889 37.8512 72.2177 37.245 72.0001 36.4732L71.9327 36.2389C71.8122 35.7956 71.6121 35.0561 70.9107 35.0561C70.7294 35.0561 70.5721 35.1196 70.4531 35.2399C70.1638 35.5346 70.1782 36.1019 70.1878 36.4789L70.1914 36.6304V38.0184L70.1893 38.2131C70.1841 38.9172 70.1798 39.3418 71.0436 39.7713C72.1481 40.3083 74.1417 40.6276 75.4332 40.6276C77.3624 40.6276 78.9804 40.1028 80.2431 39.0651C81.584 37.9297 82.3505 36.3982 82.3505 34.8631C82.3505 31.554 79.8411 30.3324 77.6554 29.6374Z" fill="white"/>
<path d="M98.6079 35.4093C98.1336 35.4093 97.9087 35.7836 97.7811 36.0631C97.378 36.8176 96.9159 37.6869 96.1617 38.3118C95.4148 38.9057 94.5372 39.2222 93.6307 39.2222C91.9981 39.2222 90.4883 38.3371 89.4868 36.7932C88.7036 35.5665 88.251 33.8403 88.251 32.0594C88.251 30.233 88.7463 28.4938 89.6094 27.2822C90.5948 25.9155 92.099 25.0983 93.6307 25.0983C95.6837 25.0983 96.4482 26.2018 97.0597 27.0898C97.4353 27.6339 97.7616 28.1025 98.304 28.1025C98.7204 28.1025 98.9988 27.8471 98.9988 27.4638L98.9061 26.7531L98.8937 26.6896C98.8937 26.6983 98.6914 25.411 98.6914 25.411C98.6899 25.4068 98.6789 25.3513 98.6789 25.3513C98.5512 24.6355 98.4933 24.4575 97.7288 24.232C96.5439 23.9005 95.0631 23.6927 93.8577 23.6927C91.1722 23.6927 88.4561 24.5015 86.5924 25.855C84.4567 27.4422 83.2294 29.7853 83.2294 32.2871C83.2294 34.7311 84.4994 37.1955 86.5422 38.7169C88.1698 39.9322 90.6514 40.6276 93.3508 40.6276C94.7243 40.6276 96.7035 40.4207 98.3373 39.4364C99.1764 38.9512 99.2011 38.5367 99.2454 37.785C99.2454 37.785 99.2527 37.6567 99.2527 37.6524C99.2527 37.651 99.3274 36.5943 99.3274 36.5943C99.3331 36.5165 99.3381 36.4228 99.3381 36.3233C99.3381 36.0812 99.302 35.8022 99.1249 35.6105C98.9965 35.4772 98.8241 35.4093 98.6079 35.4093Z" fill="white"/>
<path d="M133.917 24.7865L133.64 27.508C133.603 27.9009 133.541 28.5574 132.888 28.5574C132.585 28.5574 132.168 28.4025 131.904 27.6694C131.202 25.9367 130.959 25.5281 128.925 25.5281C128.452 25.5281 128.452 25.5281 128.452 26.0506V36.7308L128.45 36.9824C128.444 38.2725 128.444 38.6617 129.77 38.8714C130.094 38.9213 130.762 39.0237 130.762 39.6599C130.762 39.8661 130.682 40.3498 129.94 40.3498L126.028 40.2489L122.369 40.3498C121.69 40.3498 121.549 39.9736 121.549 39.6599C121.549 39.3658 121.697 38.989 122.413 38.8714C123.776 38.6451 123.835 38.4283 123.835 37.1251V26.0823L123.833 26.0096C123.827 25.8214 123.819 25.6261 123.79 25.5865C123.743 25.5541 123.489 25.5541 123.336 25.5541C121.76 25.5541 121.106 26.1298 120.158 27.5044C119.724 28.153 119.313 28.4817 118.939 28.4817C118.527 28.4817 118.271 28.1891 118.271 27.7163L118.374 27.2088C118.374 27.2088 118.406 27.1038 118.405 27.1066L119.061 24.5825C119.061 24.5825 119.243 24.0347 119.938 24.0426C121.51 23.9807 123.532 24.3086 133.229 24.0801C133.229 24.0801 134.007 24.0801 133.917 24.7865Z" fill="white"/>
<path d="M160.053 38.8769L159.885 38.8705C159.458 38.8502 159.284 38.7471 159.005 38.353C158.768 38.0142 158.498 37.3697 158.395 37.1096C158.391 37.1037 153.157 24.8335 153.157 24.8335C153.157 24.8323 153.041 24.5512 153.041 24.5512C152.82 23.9896 152.666 23.6948 151.845 23.6948C150.82 23.6948 150.634 24.1604 150.378 24.8056L150.255 25.1112L147.305 32.0341L145.907 35.5182L145.65 36.1878C145.4 36.8574 145.085 37.6883 144.851 38.1215C144.514 38.7213 144.296 38.8278 143.687 38.8957C143.591 38.9064 143.542 38.905 143.449 38.8957C143.331 38.8905 143.28 38.8804 143.221 38.8725C141.895 38.6628 141.897 38.2745 141.902 36.9842L141.903 36.7319V27.7686L141.902 27.4427C141.894 26.0273 141.893 25.7316 143.326 25.5018C143.659 25.4471 144.212 25.3569 144.212 24.7904C144.212 24.3314 143.929 24.0992 143.368 24.0992L139.735 24.2009L135.823 24.0992C135.618 24.0992 135.002 24.0992 135.002 24.7904C135.002 25.3569 135.582 25.4406 135.895 25.4874L135.991 25.5018C137.304 25.7274 137.3 26.1159 137.289 27.4017L137.287 27.7686L137.288 36.9374C137.291 38.4097 137.291 38.6355 135.863 38.8725C135.15 38.9899 135.002 39.3669 135.002 39.6609C135.002 39.9746 135.143 40.3516 135.823 40.3516L139.48 40.2499L143.393 40.3516V40.3486C143.494 40.3559 143.607 40.3566 143.742 40.3516L146.129 40.3005L148.516 40.3516C149.432 40.3516 149.566 39.8867 149.566 39.6098C149.566 38.9236 148.886 38.8308 148.34 38.7565C147.538 38.647 146.897 38.5613 146.966 37.8043C146.996 37.4671 147.166 37.01 147.247 36.7722C147.247 36.7722 147.323 36.551 147.323 36.5496C147.323 36.5482 147.371 36.4184 147.371 36.4184C147.552 35.9341 147.648 35.5939 148.369 35.5974H151.985C152.96 35.5622 152.989 36.0271 153.194 36.5756L153.247 36.7248C153.249 36.7275 153.629 37.6682 153.629 37.6682C153.727 37.9067 153.867 38.2635 153.867 38.5496C153.867 38.7825 153.69 38.8387 153.151 38.8921C152.706 38.9369 152.092 38.9979 152.092 39.6098C152.092 40.1035 152.436 40.3516 153.115 40.3516L156.824 40.2499L159.924 40.3516C160.19 40.3516 161 40.3516 161 39.6098C161 38.9027 160.407 38.8861 160.053 38.8769ZM148.16 34.0154L150.216 28.9751L152.259 34.0154H148.16Z" fill="white"/>
</svg>
